<svg width="2048" height="2048" xmlns="http://www.w3.org/2000/svg">
  <defs/>
  <g clip-path="url(#clip_1)">
    <path d="M278.35 1025.448c0-559.693 319.532-1013.41 713.696-1013.41 394.163 0 713.693 453.717 713.693 1013.41 0 559.68-319.53 1013.4-713.693 1013.4-394.164 0-713.697-453.72-713.697-1013.4z" fill="#EAAC8B" stroke="#000" stroke-width="5"/>
    <path d="M616.711 987.91c0-20.42 25.332-36.973 56.58-36.973 31.25 0 56.581 16.553 56.581 36.973 0 20.42-25.332 36.973-56.58 36.973-31.249 0-56.58-16.553-56.58-36.973zM1264.304 987.91c0-20.42 25.332-36.973 56.58-36.973 31.25 0 56.582 16.553 56.582 36.973 0 20.42-25.333 36.973-56.581 36.973-31.249 0-56.58-16.553-56.58-36.973z"/>
    <path d="M956.952 934.744c-5.001 0-5.802 8.566-8.54 12.225-3.965 5.297-5.716 11.97-8.541 18.338-4.798 10.818-11.112 20.296-14.64 31.786-2.795 9.1-8.197 18.72-9.76 28.118-.634 3.808-.28 8.451-1.22 12.225-.64 2.564-3.144 4.747-3.661 7.335-1.888 9.46-6.181 18.665-8.54 28.118-3.584 14.365-5.638 29.473-8.54 44.011-.464 2.326-3.01 4.157-3.66 6.113-.258.773 0 1.63 0 2.445s.257 1.672 0 2.445c-.182.547-.901.743-1.22 1.222a10.365 10.365 0 00-1.22 2.446c-1.104 3.317-1.284 7.525-2.44 11.002-.288.865-.675 1.716-1.22 2.445-.69.922-2.013 1.375-2.44 2.445-.454 1.135.2 2.462 0 3.668-.212 1.271-.646 2.515-1.22 3.667-.656 1.315-1.896 2.304-2.44 3.668-.303.757 0 1.63 0 2.445s.363 1.716 0 2.445c-.515 1.031-1.75 1.523-2.44 2.445-.547.73-.933 1.581-1.221 2.445-.706 2.122.986 2.68-1.22 4.89-.288.29-1.038-.364-1.22 0-.488.978.488 2.69 0 3.668-2.613 5.237-4.702 10.645-7.32 15.893-2.705 5.421-7.463 8.16-10.98 13.448-1.052 1.58-2.756 5.402-4.88 6.112-.772.258-1.866-.576-2.44 0-.576.577.363 1.716 0 2.445-.183.365-.857-.182-1.22 0-2.639 1.322-4.684 4.791-7.321 6.113-.364.182-.834-.129-1.22 0-.863.288-1.684.717-2.44 1.222-4.374 2.922-11.003 4.913-14.64 8.558-.91.911-3.024 4.571-3.66 4.89-.728.365-1.764-.452-2.441 0-.757.506-.577 1.801-1.22 2.445-3.7 3.707-8.53 9.728-9.76 15.893-.24 1.2.453 2.533 0 3.668-.428 1.07-1.75 1.523-2.44 2.445-.546.73-1 1.561-1.22 2.445-3.281 13.15-2.44 27.371-2.44 41.566 0 8.518-.795 17.596 1.22 25.673.887 3.557 2.791 3.502 3.66 6.112.257.774 0 1.63 0 2.445 0 .408-.182.858 0 1.223 2.835 5.682 6.184 10.518 9.76 15.893 1.298 1.951 3.386 2.17 4.88 3.667.65.652 2.593 4.178 3.66 4.89.677.453 1.685-.302 2.44 0 3.715 1.49 6.954 5.104 10.98 6.113 3.108.78 5.397.173 8.54 1.223 2.553.852 7.17 0 9.761 0 2.705 0 7.04.681 9.76 0 .883-.22 1.684-.717 2.44-1.223.48-.32.706-.965 1.22-1.222 1.78-.892 5.822-.943 7.32-2.445.288-.289-.363-1.04 0-1.223.728-.364 1.764.452 2.441 0 .757-.505.577-1.8 1.22-2.445 2.308-2.313 6.872-3.443 9.76-4.89 1.302-.652 3.58.652 4.88 0 4.223-2.116 10.555.824 14.64-1.223 3.58-1.793 7.889-1.222 12.202-1.222h20.74c4.01 0 12.498-1.685 15.86 0 .515.258.742.903 1.22 1.222.758.506 1.559 1.002 2.44 1.223.79.198 1.652-.198 2.44 0 .883.221 1.798.578 2.44 1.222.644.645.408 2.038 1.22 2.445 1.092.547 2.458-.2 3.66 0 3.196.534 5.533 3.065 8.542 3.668 1.196.24 2.44 0 3.66 0 1.22 0 2.464-.24 3.66 0 3.23.647 6.413 2.997 9.76 3.668 5.262 1.054 15.603 1.287 20.74 0 14.24-3.567 26.129-8.558 41.482-8.558 3.493 0 8.936-1.09 12.2 0 .863.288 1.684.717 2.44 1.222.479.32.706.965 1.22 1.223.365.182.814 0 1.22 0 .408 0 .933-.288 1.22 0 .288.288-.363 1.04 0 1.222.728.365 1.652-.197 2.44 0 .883.221 1.684.718 2.44 1.223 2.079 1.388 5.017 4.121 7.32 4.89 1.173.391 3.71-.587 4.88 0 .516.258.743.903 1.222 1.223.756.505 1.577.934 2.44 1.222 8.805 2.941 20.245-2.263 29.28 0 5.763 1.444 11.89 4.051 18.3 2.445 2.923-.732 6.989-.296 9.762-1.222 15.695-5.243 26.08-14.14 35.38-28.118.805-1.209-.285-4.682 0-6.113 1.825-9.14 1.22-18.693 1.22-28.118v-18.338c0-1.932.797-5.74 0-7.335-.205-.412-1.93-1.934-2.44-2.445-.708-.71-.707-3.863-1.22-4.89-1.963-3.935-3.375-8.13-6.1-12.226-2.454-3.689-5.452-6.037-7.32-9.78-.72-1.444-2.763-2.319-3.66-3.667-2.804-4.215-6.462-10.144-9.76-13.448-.594-.595-3.508-2.14-3.66-2.445-.364-.729.363-1.716 0-2.445-.182-.365-.857.182-1.22 0a2.795 2.795 0 01-1.22-1.223c-.754-1.51-2.546-4.995-3.661-6.112-6.706-6.72-15.22-11.584-21.96-18.338-1.037-1.039-1.686-2.408-2.44-3.668-.468-.78-.716-1.687-1.22-2.445-1.222-1.837-3.904-2.932-4.881-4.89-.585-1.173-2.036-3.676-2.44-4.89-.257-.773 0-1.63 0-2.445 0-.408.182-.858 0-1.223-.257-.515-.813-.815-1.22-1.222-.406-.408-.963-.707-1.22-1.223-.533-1.069.258-3.858 0-4.89-.22-.884-.715-1.687-1.22-2.445-.32-.48-1.038-.676-1.22-1.223-1.016-3.054 0-8.984 0-12.225v-28.118c0-6.287 1.947-16.153 0-22.005l-2.44-7.335c-.61-1.834.61-4.279 0-6.113-1.007-3.028-1.606-5.216-2.44-8.558-.14-.559-.901-.743-1.22-1.222-.504-.759-1-1.56-1.22-2.445-1.081-4.33-1.032-9.214-2.44-13.448-.74-2.22-2.911-5.082-3.66-7.335-.828-2.489 1.159-6.236 0-8.558-2.834-5.68-4.091-12.298-6.101-18.338-.61-1.834.61-4.279 0-6.113-2.983-8.967-2.147-18.974-6.1-26.895-1.227-2.46.076-5.96-1.22-8.557-1.524-3.056 0-10 0-13.448 0-.408.182-.858 0-1.223-.257-.515-.963-.707-1.22-1.222-.774-1.552 0-5.705 0-7.335V956.75c0-5.928.49-11.735-2.44-14.67-.287-.289 0-.816 0-1.223 0-.408.182-.858 0-1.223-.913-1.83-2.932-4.16-3.66-4.89-1.22-1.222 1.22-6.112 0-7.335-.475-.476-4.136 0-4.88 0" fill="none" stroke="#000" stroke-width="5"/>
    <path d="M259.768 1137.766c-5.66 0-5.805-2.11-9.238-5.55-2.835-2.83-8.173-4.47-11.086-7.39-.974-.97-.874-2.72-1.848-3.69-1.242-1.25-5.495-2.75-7.39-3.7a4.238 4.238 0 01-1.848-1.85c-.275-.55.436-1.41 0-1.84-1.822-1.83-6.044-2.35-7.39-3.7-.436-.43.275-1.3 0-1.85-1.109-2.21-4.435-3.32-5.543-5.54-.276-.55 0-1.23 0-1.85 0-.61.435-1.41 0-1.84-1.21-1.21-4.27-1.15-5.543-3.7-2.398-4.8-4.993-9.99-7.39-14.78-.39-.78-1.232-1.23-1.848-1.85-.616-.61-1.458-1.07-1.848-1.85-.739-1.47.74-4.06 0-5.54-1.378-2.75-4.134-4.57-5.543-7.39-1.101-2.2-2.03-7.57-3.695-9.24-.436-.43-1.412.44-1.848 0-.435-.43 0-1.23 0-1.85 0-1.23.39-2.52 0-3.69-.275-.83-1.231-1.23-1.847-1.85-.616-.61-1.458-1.07-1.848-1.85-.275-.55 0-1.23 0-1.84 0-.62.275-1.3 0-1.85-1.601-3.2-2.099-7.89-3.695-11.09-.39-.78-1.365-1.12-1.848-1.84-.764-1.15-1.412-2.39-1.848-3.7-.712-2.14.993-5.4 0-7.39-.389-.78-1.458-1.07-1.847-1.85-1.232-2.46 1.232-6.77 0-9.24-5.527-11.05-3.695-24.374-3.695-36.949 0-16.796 5.512-29.5 12.933-44.343.871-1.742 1.375-3.653 1.848-5.543.761-3.046.745-6.298 1.847-9.238.78-2.079 2.82-3.502 3.696-5.543 1-2.334 1.567-4.867 1.847-7.39.34-3.06-.668-6.233 0-9.239.598-2.688 2.904-4.752 3.695-7.39 1.077-3.588.94-7.45 1.848-11.086.945-3.779 2.75-7.307 3.695-11.086 3.02-12.076 2.751-24.853 5.543-36.952.876-3.796 2.82-7.29 3.695-11.086 1.692-7.328 2.578-22.854 3.696-29.562.933-5.6 2.762-11.028 3.695-16.629.917-5.5 1.5-11.062 1.848-16.629.269-4.302-.358-8.637 0-12.933.937-11.254 6.011-22.226 7.39-33.257 1.393-11.142 1.23-22.16 3.695-33.258 3.152-14.18 6.39-28.254 9.239-42.495.498-2.49 1.231-4.927 1.847-7.39.616-2.464 1.567-4.868 1.848-7.39.34-3.062-.34-6.179 0-9.239.933-8.399 6.022-15.807 7.39-24.02.002-.009-.001-11.076 0-11.085.946-5.677 4.73-10.935 5.543-16.629.349-2.439-.305-4.946 0-7.39.315-2.52.956-5.014 1.848-7.39.967-2.58 2.728-4.813 3.695-7.392 4.49-11.975 9.896-24.799 12.934-36.952.692-2.766 4.549-7.25 5.543-9.238 2.56-5.122 3.414-11.307 5.543-16.629 3.48-8.7 7.39-17.246 11.086-25.867.767-1.79 1.163-3.719 1.847-5.543 1.165-3.105 2.05-6.358 3.696-9.238.864-1.513 3.048-2.078 3.695-3.695.686-1.716-.686-3.828 0-5.543.647-1.618 2.729-2.246 3.695-3.695 5.142-7.714 8.956-16.738 14.78-24.02 1.633-2.04 4.2-3.302 5.544-5.543.634-1.056-.551-2.593 0-3.695.779-1.558 2.916-2.137 3.695-3.695 1.136-2.27 1.045-4.982 1.848-7.39.435-1.307 1.02-2.594 1.847-3.696 1.046-1.393 2.8-2.2 3.696-3.695 1.002-1.67.976-3.8 1.847-5.543.994-1.986 2.87-3.48 3.696-5.543.457-1.144-.458-2.552 0-3.695.824-2.062 2.308-3.809 3.695-5.543 1.088-1.36 2.683-2.278 3.695-3.695 4.988-6.983 8.704-14.769 12.934-22.172 1.1-1.928 2.308-3.809 3.695-5.543 1.088-1.36 2.916-2.137 3.695-3.695.55-1.102-.457-2.552 0-3.695 1.325-3.31 4.646-5.652 5.543-9.238.299-1.196-.242-2.488 0-3.696.382-1.91.846-3.873 1.848-5.543.896-1.493 3.048-2.078 3.695-3.695.686-1.715-.362-3.73 0-5.543 1.546-7.732 8.446-16.188 12.933-22.17.827-1.103 1.139-2.516 1.848-3.697 1.142-1.904 2.308-3.809 3.695-5.543 5.382-6.727 12.81-12 18.477-18.476 2.027-2.317 3.365-5.213 5.542-7.39 2.178-2.178 4.96-3.653 7.39-5.543 3.114-2.422 6.27-4.794 9.239-7.39 1.967-1.722 3.369-4.094 5.543-5.544 1.62-1.08 3.852-.88 5.543-1.847 6.074-3.47 14.62-8.859 20.324-12.934 2.126-1.519 3.417-4.024 5.543-5.543 2.24-1.6 5.187-2.042 7.39-3.695 2.787-2.09 4.64-5.252 7.39-7.39 2.836-2.205 6.16-3.696 9.239-5.543 3.079-1.848 6.085-3.824 9.238-5.543 12.252-6.683 24.483-14.089 36.953-20.324 5.425-2.713 11.07-4.959 16.628-7.39 4.298-1.88 8.816-3.298 12.934-5.544 2.703-1.474 4.828-3.834 7.39-5.543 9.996-6.663 21.706-11.544 31.41-18.476 2.126-1.518 3.503-3.91 5.543-5.543 4.678-3.742 11.475-4.298 16.629-7.39 1.904-1.143 3.809-2.308 5.543-3.695 1.36-1.089 2.245-2.73 3.695-3.696 12.02-8.014 24.17-16.715 36.952-24.019 8.333-4.761 17.68-8.255 25.867-12.933 2.674-1.528 4.699-4.048 7.39-5.543 7.837-4.353 17.58-7.534 25.868-11.086 1.79-.767 3.695-1.232 5.543-1.848 1.847-.615 3.873-.845 5.542-1.847 1.494-.897 2.138-2.916 3.696-3.696 1.1-.55 2.5.3 3.695 0 1.336-.333 2.464-1.231 3.695-1.847 1.232-.616 2.36-1.514 3.696-1.848 1.195-.299 2.463 0 3.695 0 .616 0 1.297.276 1.847 0 2.153-1.076 3.39-2.619 5.543-3.695.55-.275 1.413.435 1.848 0 .436-.436-.435-1.412 0-1.848h29.562c35.63 0 71.572-1.294 107.163 0 17.224.627 113.332 7.575 125.639 9.238 22.983 3.106 45.495 9.069 68.362 12.934 51.773 8.75 103.564 16.186 155.204 25.867 9.8 1.837 22.87 4.389 33.25 5.543 11.3 1.255 21.76 1.231 33.26 3.695 17.28 3.701 33.51 10.33 49.89 16.629 12.19 4.687 24.99 7.616 36.95 12.933 17.31 7.691 34.31 16.684 51.73 24.02 20.62 8.677 42.35 15.06 62.82 24.018 4.55 1.991 8.5 5.17 12.94 7.391 4.19 2.097 8.8 3.32 12.93 5.543 3.91 2.105 7.35 4.99 11.09 7.39 4.88 3.142 9.58 6.64 14.78 9.238 4.7 2.354 9.96 3.434 14.78 5.543 5.05 2.208 9.69 5.293 14.78 7.391 5.4 2.224 11.46 2.81 16.63 5.543 5.44 2.881 9.56 7.821 14.78 11.085 4.67 2.92 10.2 4.335 14.78 7.391 2.9 1.933 4.64 5.252 7.39 7.391 7.92 6.157 9.76 4.22 16.63 11.085 7.66 7.658 13.38 17.537 20.32 25.867 1.68 2.008 4.16 3.327 5.55 5.543 1.75 2.813 2.46 6.16 3.69 9.238 1.23 3.08 2.09 6.34 3.7 9.238 1.49 2.692 3.96 4.75 5.54 7.391 9.94 16.574 16.86 34.718 25.87 51.734 2.72 5.135 6.76 9.524 9.23 14.781 5.78 12.278 10.07 29.13 12.94 42.495 2.85 13.3 3.48 27.222 5.54 40.648 1.42 9.24 4.39 18.49 5.54 27.715 1.05 8.33-1.88 17.714 0 25.866 1.32 5.693 3.98 11 5.55 16.63 1.52 5.47 2.09 11.18 3.69 16.628 3.78 12.85 9.95 25.18 11.09 38.8 2.09 25.14 1.85 50.392 1.85 75.753 0 35.38.01 70.083-3.7 105.315-.65 6.156-.83 12.371-1.85 18.476-.83 5.01-3.02 9.747-3.69 14.781-.57 4.274.57 8.66 0 12.934-.67 5.034-2.7 9.801-3.7 14.781-.85 4.27-1.54 8.59-1.85 12.933-.3 4.3.61 8.666 0 12.934-.63 4.438-2.68 8.564-3.69 12.933-.84 3.65-1.23 7.39-1.85 11.086-.61 3.695-.94 7.451-1.85 11.086-2.49 9.963-6.76 19.683-9.23 29.562-1.06 4.225-.87 8.69-1.85 12.933-3.62 15.68-8.8 32.045-11.09 48.04-.35 2.437.27 4.941 0 7.39-.34 3.12-1.08 6.191-1.85 9.237-2.14 8.57-6.13 17.09-7.39 25.867-2.98 20.882-7.61 41.962-11.08 62.822l-3.7 11.08c-3.14 11-4.7 22.68-9.24 33.26-1.08 2.53-3.02 4.72-3.69 7.39-.6 2.39.35 4.95 0 7.39-.28 1.93-.98 3.8-1.85 5.54-.99 1.99-2.91 3.47-3.69 5.55-1.11 2.94-.99 6.22-1.85 9.24-1.62 5.65-4.15 11.06-5.54 16.62-1.69 6.75-7.17 12.26-9.24 18.48-.39 1.17 0 2.46 0 3.7 0 1.23.39 2.52 0 3.69-.28.83-1.23 1.23-1.85 1.85-.62.61-1.57 1.02-1.85 1.85-.39 1.17 0 2.46 0 3.69 0 .62.28 1.3 0 1.85a4.27 4.27 0 01-1.84 1.85c-.56.27-1.42-.44-1.85 0-.49.49 0 4.78 0 5.54 0 .62.43 1.41 0 1.85-.44.43-1.41-.44-1.85 0-.62.61.62 3.08 0 3.69-.62.62-4.93 1.23-5.54 1.85-.86.85.56 4.43 0 5.54-2.81 5.62-3.7 9.72-3.7 16.63 0 1.13.72 6.67 0 7.39-.92.93-2.77.93-3.69 1.85-.44.44.43 1.41 0 1.85-.44.43-1.42-.44-1.85 0-.62.61.62 3.08 0 3.69-.92.93-4.62-.92-5.54 0-.93.93-.93 2.77-1.85 3.7-.44.43-1.23 0-1.85 0h-1.85c-4.04 0-4.05 4.06-5.54 5.54-.44.44-1.23 0-1.85 0-.61 0-1.41.44-1.84 0-.49-.49 0-4.78 0-5.54v-18.48-77.6V936.37v-68.363c0-9.168 1.8-20.553 0-29.562-1.1-5.45-2.61-11.18-3.7-16.628-.88-4.378 0-10.217 0-14.78 0-17.252 2.44-36.51 0-53.583-3.21-22.49-6.34-44.534-12.93-66.514-.96-3.177-2.35-6.208-3.7-9.238-1.12-2.517-2.73-4.812-3.69-7.39-.81-2.149-2.21-10.452-3.7-12.935-.9-1.493-3.05-2.077-3.69-3.695-.69-1.715.36-3.73 0-5.543-.27-1.35-1.24-2.463-1.85-3.695-1.23-2.464-2.83-4.778-3.7-7.39-.39-1.169.46-2.552 0-3.696-4.07-10.17-10.97-19.099-14.78-29.562-3.37-9.276-5.22-18.682-9.24-27.714-1.12-2.517-2.46-4.927-3.69-7.39-1.23-2.464-2.94-4.743-3.7-7.39-.5-1.778.51-3.768 0-5.544-2.16-7.559-4.2-6.565-7.39-12.934-1.86-3.727-1.27-6.008-3.69-9.238-1.05-1.393-2.92-2.137-3.7-3.695-.55-1.102.3-2.5 0-3.695-1.49-5.97-6.11-15.12-9.24-20.324-3.33-5.56-8.21-10.877-11.08-16.629-1.33-2.66-2.19-6.217-3.7-9.238-.39-.779-1.36-1.123-1.85-1.848-.76-1.146-1.41-2.389-1.84-3.695-1.27-3.814-1.13-7.232-3.7-11.086-5-7.5-9.67-14.508-14.78-22.17-4.72-7.086-14.51-10.814-20.32-16.63-3.98-3.975-5.95-9.51-11.09-12.933-7.21-4.809-13.15-11.845-20.32-16.629-2.29-1.528-5.1-2.168-7.39-3.695-5.71-3.805-10.53-9.446-16.63-12.934-1.69-.966-3.87-.846-5.54-1.848-1.5-.896-2.31-2.65-3.7-3.695-8-6.002-17.62-11.132-25.87-16.628-5.2-3.466-14.15-8.62-20.32-11.086-1.81-.724-3.92-.768-5.54-1.848-.52-.342.43-1.412 0-1.848-.44-.435-1.27.195-1.85 0-3.79-1.264-5.36-4.572-9.24-5.542-1.19-.299-2.53.39-3.69 0-.83-.276-1.13-1.365-1.85-1.848-1.15-.764-2.36-1.514-3.7-1.848-1.19-.298-2.55.458-3.69 0-1.87-.745-6.55-5.005-9.24-5.543-1.81-.362-3.83.687-5.54 0-1.62-.646-2.21-2.798-3.7-3.695-3.66-2.197-9.2-3.675-12.93-5.543-2.62-1.308-6.56-.955-9.24-1.847-.83-.276-1.12-1.365-1.85-1.848-1.14-.764-2.39-1.412-3.69-1.848-2.41-.803-5.06-.847-7.39-1.847-2.05-.875-3.51-2.82-5.55-3.696-13.61-5.835-28.87-8.944-42.49-14.78-4.57-1.956-8.37-5.435-12.94-7.39-4.12-1.767-8.74-2.087-12.93-3.696-3.86-1.483-7.31-3.865-11.09-5.543-1.78-.79-3.65-1.376-5.54-1.848-3.04-.762-6.35-.61-9.24-1.848-1.6-.686-2.13-2.916-3.69-3.695-1.1-.55-2.5.3-3.7 0-4.56-1.14-12.95-4.634-16.63-7.39-1.39-1.045-2.07-3.049-3.69-3.696-1.72-.686-3.73.363-5.54 0-12.9-2.579-25.752-7.062-38.804-9.238-1.921-.32-3.735-1.124-5.543-1.847-1.28-.512-2.345-1.578-3.695-1.848-5.385-1.077-11.201-.943-16.63-1.848l-11.085-3.695c-6.668-1.334-13.594-2.574-20.324-3.695-5.807-.968-12.563 0-18.476 0h-40.648c-17.831 0-37.76-2.524-55.43 0-7.015 1.002-13.307 4.541-20.323 5.543-1.83.261-3.695 0-5.543 0-1.232 0-2.526-.39-3.695 0-.926.308-7.06 3.364-7.391 3.695-.435.436.436 1.412 0 1.848-.973.973-2.388 1.412-3.695 1.847-.584.195-1.335-.34-1.848 0-1.45.967-2.137 2.916-3.695 3.696-1.101.55-2.526-.39-3.695 0-.826.275-1.232 1.231-1.848 1.847-.616.616-1.068 1.458-1.847 1.848-1.742.871-3.633 1.466-5.543 1.847-1.208.242-2.5-.298-3.695 0-4.622 1.156-7.996 4.72-12.934 5.543-1.822.304-3.71-.229-5.543 0-3.116.39-6.191 1.086-9.238 1.848a36.52 36.52 0 00-5.543 1.848c-2.531 1.085-4.833 2.672-7.39 3.695a102.604 102.604 0 01-11.086 3.695c-3.03.826-6.26.855-9.238 1.848-7.154 2.384-9.526 6.081-16.63 9.238-2.32 1.031-5.055.847-7.39 1.848-2.04.874-3.436 2.993-5.542 3.695-1.753.584-3.721-.304-5.543 0-1.921.32-3.735 1.124-5.543 1.848-8.351 3.34-15.43 8.222-24.02 11.085-10.737 3.58-22.22 5.183-33.257 7.391-23.964 4.793-47.872 9.212-72.057 12.933-10.776 1.658-20.778 5.264-31.41 7.391-3.674.735-7.355 1.508-11.086 1.847-3.067.28-6.208-.55-9.238 0-11.668 2.122-23.398 6.897-35.105 9.238-7.31 1.462-14.845.627-22.172 1.848-5.253.876-4.93 1.972-9.238 3.695-4.597 1.84-10.57 2.011-14.781 3.696-2.062.824-3.615 2.593-5.543 3.695a72.54 72.54 0 01-7.39 3.695c-4.566 1.957-6.52 3.586-11.086 5.543-2.334 1-5.213.541-7.391 1.848-1.18.708-.873 2.721-1.847 3.695-2.666 2.666-6.718 4.03-9.238 7.39-1.333 1.777-2.125 3.973-3.696 5.543-.973.974-2.55 1.084-3.695 1.848-.725.483-1.325 1.151-1.848 1.848-2.862 3.816-5.94 9.634-9.238 12.933-1.57 1.57-4.097 2.01-5.543 3.695-2.337 2.727-3.936 6.027-5.542 9.24-1.484 2.965-1.706 6.583-3.696 9.237-1.847 2.463-5.213 3.365-7.39 5.543-6.975 6.974-13.99 18.74-18.477 27.714-8.38 16.761-7.39 35.4-7.39 53.581v68.363c0 13.317 1.69 28.08-3.695 40.648-.875 2.041-2.993 3.436-3.696 5.543l-3.695 22.171c-2.881 9.604-9.715 18.06-12.933 27.715-2.426 7.277-3.931 15.251-7.391 22.171-.622 1.244-5.082 6.934-5.543 9.238-.362 1.812.448 3.751 0 5.543-.656 2.624-4.544 6.244-5.543 9.238-1.408 4.225-1.738 10.868-3.695 14.782-.39.78-1.364 1.122-1.848 1.847-.763 1.146-1.513 2.36-1.847 3.695-.3 1.195.389 2.527 0 3.696-.276.826-1.232 1.231-1.848 1.847-.616.616-1.572 1.022-1.847 1.848-.39 1.168 0 2.463 0 3.695 0 .616.275 1.297 0 1.848-.39.78-1.365 1.123-1.848 1.847-.764 1.146-1.514 2.36-1.848 3.696-.298 1.195.458 2.551 0 3.695-1.701 4.253-6.441 8.19-7.39 12.933-.363 1.812.584 3.79 0 5.543-.702 2.107-2.702 3.557-3.696 5.543-5.757 11.514-7.166 25.418-12.933 36.953-5.79 11.58-12.475 22.644-16.63 35.105-.802 2.41-1.295 4.911-1.846 7.39-.682 3.066-.855 6.26-1.848 9.238-.871 2.613-2.824 4.778-3.695 7.391-3.975 11.923-5.856 24.675-7.391 36.953-.315 2.52-1.15 4.95-1.847 7.39-.535 1.873-1.572 3.615-1.848 5.543-1.133 7.93-.962 16.05-1.848 24.02-.28 2.523-1.18 4.94-1.847 7.39-1.18 4.325-2.687 8.564-3.695 12.933-.843 3.65-1.006 7.436-1.848 11.086-1.008 4.37-2.163 8.72-3.695 12.933-.942 2.59-3.028 4.72-3.696 7.387-.597 2.39.306 4.95 0 7.39-.786 6.3-2.668 12.32-3.695 18.48-1.157 6.94 0 15.09 0 22.17v46.19c0 5.74 1.8 14.93 0 20.33-.435 1.3-1.577 2.34-1.847 3.69-.363 1.81 0 3.7 0 5.55 0 1.23.389 2.52 0 3.69-.638 1.91-2.78 3.71-3.696 5.54-.275.55 0 1.24 0 1.85 0 .62.436 1.41 0 1.85-.435.43-1.412-.44-1.847 0-.018.02.017 3.68 0 3.69-.924.93-2.772.93-3.696 1.85-.435.44.436 1.41 0 1.85-.435.43-1.231 0-1.847 0h-1.848c-2.052 0-11.627 1.31-12.933 0-.436-.44 0-1.23 0-1.85 0-.61.435-1.41 0-1.85-.436-.43-1.412.44-1.848 0-.435-.43 0-1.23 0-1.84 0-.62.08-1.24 0-1.85-.014-.11-5.562-.64-6.16-.83-4.087-1.33-7.219-4.73-10.99-4.73"/>
    <path d="M1717.2 1113.643h34.3c4.15 0 12.39 1.8 16 0 1.93-.97 2.73-3.47 4.58-4.58 2.06-1.24 4.64-1.33 6.86-2.28 6.44-2.76 14.61-7.46 20.58-11.43 4.61-3.08 5.42-10 9.14-13.72.54-.54 1.75.54 2.29 0 10.1-10.11 6.86-27.57 6.86-41.16 0-9.04 2.17-21.05 0-29.73-.59-2.33-1.82-4.49-2.29-6.86-.3-1.49.85-3.3 0-4.57-.94-1.42-3.37-1.08-4.57-2.29-1.21-1.2-1.41-3.11-2.29-4.57-1.41-2.355-2.92-4.66-4.57-6.858-2.96-3.94-6.42-7.337-9.15-11.433-.94-1.418-1.74-2.956-2.28-4.573-.24-.723.34-1.605 0-2.287-2.61-5.221-7.92-15.392-13.72-18.292-.68-.341-1.75.539-2.29 0-.54-.54.54-1.748 0-2.287-.54-.54-1.75.539-2.29 0-.53-.54.69-1.945 0-2.286-1.36-.682-3.12.482-4.57 0-1.02-.341-1.39-1.69-2.29-2.287-1.41-.945-2.95-1.747-4.57-2.286h-4.57c-.54-.54.54-1.748 0-2.287-.54-.54-1.75.539-2.29 0-.54-.54 0-1.524 0-2.286 0-1.525.37-3.094 0-4.573-.41-1.654-1.95-2.902-2.28-4.573-1.77-8.822-1.2-23.89 2.28-32.012 1.08-2.526 3.05-4.573 4.58-6.86 1.52-2.286 3.2-4.473 4.57-6.86 1.69-2.96 2.39-6.527 4.57-9.145 1.76-2.111 4.71-2.857 6.86-4.573 11.53-9.225 24.03-17.162 36.59-25.152 7.62-4.851 16.76-11.814 25.15-16.006 2.15-1.078 4.7-1.21 6.86-2.287 6.28-3.141 10.6-7.38 16-11.432 1.37-1.023 3.37-1.082 4.58-2.287 1.2-1.205 1.08-3.368 2.28-4.573 1.21-1.205 3.37-1.081 4.58-2.286 1.2-1.206 1.08-3.368 2.28-4.574 1.21-1.205 3.37-1.081 4.58-2.286 5.86-5.867 7.85-15.712 11.43-22.866.48-.964 1.94-1.264 2.28-2.286 2.22-6.653 0-17.954 0-25.152 0-17.956 1.98-37.093 0-54.877-.34-3.123-1.29-6.165-2.28-9.146-.54-1.617-1.66-2.991-2.29-4.573l-4.57-13.72c-2.9-4.826-8.04-9.191-11.43-13.72-3.54-4.712-7.87-8.965-11.44-13.718-1.02-1.363-1.08-3.368-2.28-4.573-1.95-1.943-4.92-2.63-6.86-4.573-1.21-1.205-1.08-3.368-2.29-4.573-1.21-1.205-3.05-1.524-4.57-2.287-1.53-.762-3.16-1.341-4.58-2.286-3.53-2.355-5.53-5.052-9.14-6.86-6.2-3.096-13.92-3.241-20.58-4.573-1.67-.334-2.92-1.873-4.57-2.286-1.48-.37-3.08.299-4.58 0-9.38-1.876-17.61-7.661-25.15-11.433-.68-.341-1.6.34-2.29 0-.96-.482-1.52-1.524-2.28-2.287-.76-.762-1.32-1.804-2.29-2.286-.68-.341-1.75.539-2.29 0-.53-.54 0-1.524 0-2.287 0-1.524.49-3.127 0-4.573-.34-1.022-1.8-1.322-2.28-2.286-1.1-2.192 0-6.612 0-9.146 0-3.802-1.23-10.023 0-13.72 1.48-4.433 4.4-7.752 6.86-11.432.94-1.418 1.08-3.368 2.28-4.573 1.21-1.206 3.37-1.082 4.58-2.287 3.52-3.52 5.62-10.2 9.14-13.72 1.21-1.204 3.63-.868 4.58-2.286.84-1.268-.85-3.304 0-4.573.94-1.418 3.36-1.081 4.57-2.286 1.2-1.205 1.08-3.368 2.29-4.573 1.2-1.206 3.36-1.082 4.57-2.287.54-.54-.42-1.652 0-2.287 1.2-1.793 3.05-3.048 4.57-4.573 1.53-1.524 3.38-2.78 4.58-4.573.42-.634 0-1.524 0-2.286s-.35-1.605 0-2.287l4.57-4.573c.48-1.446-.48-3.127 0-4.573 0-.001 4.57-4.571 4.57-4.573.34-.682 0-1.524 0-2.286v-2.287-16.006c0-9.075 2.17-21.037 0-29.725-1.1-4.41-4.49-7.886-6.86-11.433-3.21-4.818-5.04-11.896-9.14-16.005-1.21-1.205-3.37-1.082-4.58-2.287-1.2-1.205-1.34-3.155-2.28-4.573-.6-.897-1.53-1.524-2.29-2.286-1.52-1.525-3.23-2.89-4.57-4.574-1.72-2.145-2.43-5.142-4.58-6.86-1.88-1.505-4.79-1.046-6.86-2.286-5.76-3.46-10.35-9.95-16-13.72-8.86-5.903-19.08-4.572-29.73-4.572-4.04 0-9.84-.97-13.72 0-8.76 2.19-19.03 5.994-27.43 9.146-3.2 1.197-5.84 3.747-9.15 4.573-2.96.74-6.25-.964-9.15 0-2.04.682-2.72 3.464-4.57 4.573-2.07 1.24-4.48 1.89-6.86 2.287-2.26.376-4.81-1.023-6.86 0-.28.139-3.8 9.915-6.86 6.859-.54-.538 0-1.524 0-2.286v-2.286-22.866-84.602c0-7.235 1.02-15.71 0-22.865-.44-3.111-1.84-6.035-2.29-9.146-.32-2.264.73-4.691 0-6.86-1.15-3.464-6.05-7.387-6.86-11.433-.44-2.242.38-4.604 0-6.86-.39-2.377-1.04-4.792-2.28-6.86-1.11-1.847-3.77-2.57-4.57-4.572-.85-2.123 1.02-4.814 0-6.86-.77-1.524-3.56-.923-4.58-2.286-1.44-1.928-1.39-4.622-2.28-6.86-.64-1.582-1.27-3.21-2.29-4.573-3.8-5.072-7.52-11.12-11.43-16.006-2.02-2.525-4.84-4.334-6.86-6.86-5.33-6.655-10.82-15.597-18.3-20.578-6.87-4.58-7.99-3.427-13.71-6.86-6.58-3.944-14.23-7.198-20.58-11.432-.9-.598-1.27-1.946-2.29-2.287-1.45-.482-3.13.482-4.57 0-3.71-1.236-7.41-5.518-11.44-6.86-2.16-.723-4.6.376-6.86 0-2.37-.396-4.48-1.89-6.86-2.286-2.25-.376-4.6.376-6.85 0-2.38-.396-4.63-1.391-6.86-2.287-1.59-.633-2.91-1.952-4.58-2.286-2.24-.45-4.57 0-6.86 0-1.52 0-3.08.299-4.57 0-2.36-.473-4.5-1.814-6.86-2.287-4.96-.991-10.93 0-16.01 0h-70.88c-4.94 0-11.24-1.191-16 0-6.92 1.729-13.38 5.418-20.58 6.86-1.5.299-3.05 0-4.58 0-2.28 0-4.59-.323-6.86 0-3.11.444-6.03 1.842-9.14 2.286-11.6 1.657-24.89 0-36.59 0h-96.03c-1.77 0-7.13-.672-9.15 0-1.61.539-2.92 1.874-4.57 2.287-1.48.37-3.13-.482-4.57 0-1.03.34-1.24 2.025-2.29 2.287-5.65 1.41-12.5 1.128-18.29 2.286-2.37.473-4.5 1.814-6.86 2.287-1.5.299-3.13-.482-4.57 0-2.24.743-3.57 3.934-6.86 2.286-5.282-2.638-7.738-10.02-11.437-13.72-1.943-1.942-5.143-2.426-6.86-4.572-1.505-1.882-1.09-4.767-2.286-6.86-1.891-3.31-4.42-6.218-6.86-9.146-1.38-1.656-3.772-2.572-4.573-4.573-.849-2.123.555-4.642 0-6.86-.261-1.046-1.805-1.322-2.287-2.286-1.077-2.156-1.701-4.522-2.286-6.86-.185-.74.341-1.605 0-2.287-.482-.964-1.689-1.39-2.286-2.286-.946-1.418-1.748-2.956-2.287-4.573-.643-1.929.903-5.054 0-6.86-.482-.964-1.805-1.322-2.287-2.286-.34-.682.539-1.748 0-2.287-.539-.539-1.945.682-2.286 0-.682-1.363.845-3.305 0-4.573-.945-1.418-3.368-1.081-4.573-2.286-.539-.54.341-1.605 0-2.287-1.229-2.458-2.925-4.661-4.573-6.86-1.327-1.769-4.896-5.877-6.86-6.86-.682-.34-1.747.54-2.286 0-1.206-1.204-1.082-3.367-2.287-4.572-1.205-1.205-2.956-1.748-4.573-2.287-.723-.241-1.748.539-2.287 0-1.205-1.205-1.081-3.368-2.286-4.573-.539-.539-1.564.241-2.287 0-1.617-.539-3.209-1.264-4.573-2.286-1.724-1.294-2.724-3.464-4.573-4.574-2.753-1.651-13.762-3.825-16.006-4.573-1.617-.539-2.99-1.653-4.573-2.286-2.238-.895-4.473-1.946-6.859-2.287-3.018-.43-6.128.431-9.147 0-7.68-1.097-15.205-5.583-22.865-6.86-6.369-1.06-14.112 0-20.579 0h-43.444c-18.585 0-39.492-2.13-57.164 2.287-3.423.856-8.971 5.63-11.432 6.86-2.76 1.38-6.204 2.366-9.146 4.573-1.725 1.293-3.049 3.049-4.574 4.573-.762.762-1.322 1.805-2.286 2.287-2.156 1.077-4.931.84-6.86 2.286-1.363 1.023-1.081 3.368-2.286 4.573-.02.02-9.127 4.554-9.146 4.573-5.934 5.934-10.608 14.102-16.006 20.579-6.477 7.772-14.489 14.745-20.579 22.865-4.859 6.479-7.327 13.736-11.433 20.58-4.48 7.467-9.83 15.087-13.719 22.865-3.606 7.212-5.54 15.653-9.146 22.865-2.047 4.095-4.813 7.339-6.86 11.433-.762 1.524-1.747 2.956-2.286 4.573-.241.723.423 1.652 0 2.287-1.196 1.793-3.049 3.048-4.573 4.573-.762.762-1.323 1.804-2.287 2.286-.682.34-1.747-.54-2.286 0-.371.37-2.01 6.72-2.287 6.86-1.363.682-3.127-.482-4.573 0l-4.573 4.573c-1.592.796-13.624.038-13.719 0-2.002-.801-2.725-3.464-4.573-4.573-2.067-1.24-4.816-1.01-6.86-2.287-4.139-2.586-7.76-5.932-11.433-9.146-2.433-2.13-4.404-4.755-6.859-6.86-7.086-6.073-13.808-9.234-20.579-16.005-2.695-2.695-4.165-6.452-6.86-9.146-2.695-2.695-6.298-4.328-9.146-6.86-4.028-3.58-7.445-7.807-11.433-11.433-11.639-10.581-24.763-19.381-36.584-29.725-2.434-2.13-4.573-4.573-6.86-6.86-1.524-1.524-2.779-3.377-4.573-4.573-2.836-1.89-5.912-3.495-9.146-4.573-1.446-.482-3.305.846-4.573 0-1.418-.945-.869-3.627-2.287-4.573h-9.146c-1.394-.465-5.465-4.108-6.859-4.573-.724-.241-1.525 0-2.287 0h-4.573c-13.671 0-26.723 1.553-38.871 9.146-2.742 1.714-4.118 5.146-6.86 6.86-3.481 2.175-7.762 2.737-11.433 4.573-8.08 4.04-15.516 10.756-22.865 16.006-15.181 10.843-21.149 24.388-32.011 38.87-1.941 2.588-5.146 4.119-6.86 6.86-2.175 3.48-2.738 7.762-4.573 11.433-.006.01-9.141 13.709-9.146 13.72-1.078 2.155-1.047 4.793-2.287 6.859-1.109 1.849-3.464 2.725-4.573 4.573-1.24 2.067-1.209 4.704-2.287 6.86l-11.432 22.865c-3.46 6.919-8.932 13.078-11.433 20.579-.994 2.982-1.423 6.125-2.286 9.146-.663 2.318-1.338 4.645-2.287 6.86-3.806 8.879-10.137 16.196-13.719 25.152-2.731 6.826-2.871 13.77-4.573 20.579-1.705 6.817-4.573 13.186-4.573 20.579v29.725c0 1.524-.37 3.094 0 4.573.413 1.653 1.524 3.048 2.286 4.573.762 1.524 1.748 2.956 2.287 4.573.241.723 0 1.524 0 2.286s-.185 1.547 0 2.287c.584 2.338 1.208 4.704 2.286 6.859 2.161 4.322 4.937 8.913 6.86 13.72 2.809 7.024 2.186 13.416 4.573 20.579 3.017 9.052 2.286 17.99 2.286 27.438 0 1.933 1.19 7.956 0 9.146-.538.539-1.747-.54-2.286 0-1.205 1.205-.869 3.628-2.287 4.573-1.268.846-3.078-.3-4.573 0-2.363.473-4.793 1.047-6.859 2.287-1.849 1.109-2.572 3.772-4.573 4.573-3.54 1.416-14.452 0-18.293 0h-34.298c-4.207 0-9.604-.823-13.719 0-7.036 1.407-13.543 5.452-20.579 6.86-1.495.299-3.094-.37-4.573 0-1.653.413-3.155 1.34-4.573 2.286-.897.598-1.322 1.805-2.286 2.287-2.156 1.078-4.522 1.702-6.86 2.286-.74.185-1.748-.54-2.287 0-1.205 1.205-.868 3.628-2.286 4.573-1.269.846-3.127-.482-4.573 0-1.023.34-1.39 1.689-2.287 2.287-1.418.945-3.368 1.08-4.573 2.286-1.205 1.205-1.341 3.155-2.286 4.573-.598.897-1.525 1.525-2.287 2.287-2.287 2.286-4.79 4.375-6.86 6.86-5.577 6.692-8.95 13.426-13.719 20.578-4.367 6.55-10.68 12.982-13.719 20.579-.566 1.416.37 3.094 0 4.573-.413 1.654-1.873 2.92-2.287 4.573-.67 2.68 0 8.666 0 11.433 0 12.09.239 22.739 4.573 34.298 1.197 3.192 3.05 6.098 4.573 9.146.763 1.525 1.874 2.92 2.287 4.573.37 1.479-.682 3.21 0 4.573 1.372 2.744 5.488 4.116 6.86 6.86 2.479 4.958 4.857 11.717 9.146 16.006 1.205 1.205 3.21 1.264 4.573 2.286 8.055 6.042 14.969 14.262 22.865 20.579 2.146 1.717 4.503 3.159 6.86 4.573 1.461.877 3.21 1.264 4.573 2.287 6.886 5.164 13.43 11.24 20.579 16.006.634.422 1.605-.341 2.286 0 .965.482 1.525 1.524 2.287 2.286s1.322 1.805 2.286 2.287c2.358 1.179 5.246 1.345 6.86 4.573.341.68 0 1.524 0 2.286s-.341 1.605 0 2.287c.482.964 1.805 1.322 2.287 2.286.34.682 0 1.525 0 2.287v2.286c0 3.869 1.213 10.08 0 13.72-.539 1.616-1.264 3.209-2.287 4.573-1.293 1.724-3.28 2.848-4.573 4.573-3.861 5.147-5.437 12.408-11.433 16.005-2.066 1.24-4.767 1.09-6.859 2.287-3.309 1.89-6.253 4.38-9.146 6.86-2.456 2.104-4.335 4.839-6.86 6.859-1.331 1.065-3.155 1.34-4.573 2.287-3.171 2.114-5.837 4.969-9.146 6.86-2.093 1.195-4.932.84-6.86 2.286-1.363 1.023-.923 3.55-2.286 4.573-1.929 1.446-4.855.95-6.86 2.287-.634.422.539 1.747 0 2.286-.539.539-1.605-.341-2.287 0a5.242 5.242 0 00-2.286 2.287c-.34.68.539 1.747 0 2.286-.54.539-1.605-.341-2.287 0a5.242 5.242 0 00-2.286 2.287l-6.86 13.719c-2.432 4.864-3.33 11.032-4.573 16.006-.413 1.653-1.341 3.155-2.287 4.573-.598.897-1.804 1.322-2.286 2.286-1.078 2.156-1.814 4.497-2.287 6.86-.299 1.495.482 3.127 0 4.573-1.219 3.658-5.99 7.083-6.86 11.433-.448 2.242.45 4.617 0 6.859-.334 1.672-1.34 3.155-2.286 4.574-.598.896-1.945 1.264-2.286 2.286-.482 1.446.37 3.094 0 4.573-1.21 4.842-5.65 8.877-6.86 13.719-.37 1.479.566 3.158 0 4.573-2.816 7.039-8.537 13.339-11.433 20.579-2.493 6.234-.494 8.34-2.286 13.72-.341 1.022-1.689 1.389-2.287 2.286-.945 1.418-1.747 2.956-2.286 4.573-.241.723.24 1.564 0 2.287-.54 1.616-1.341 3.155-2.287 4.573-.598.897-1.946 1.264-2.286 2.286-.482 1.446.482 3.127 0 4.573-.341 1.023-1.946 1.264-2.287 2.287-.482 1.446.37 3.094 0 4.573-.413 1.653-1.341 3.155-2.286 4.573-.598.897-1.946 1.264-2.287 2.287-.482 1.446.482 3.127 0 4.573-.34 1.022-1.804 1.322-2.286 2.286-.341.682 0 1.525 0 2.287 0 1.524.482 3.127 0 4.573-.341 1.022-1.805 1.322-2.287 2.286-2.447 4.895-2.287 10.463-2.287 16.006 0 4.897-1.146 6.872-2.286 11.433-2.155 8.62 0 20.615 0 29.724 0 3.92-1.728 12.55 0 16.01.482.96 1.804 1.32 2.286 2.28.341.68-.539 1.75 0 2.29.54.54 1.605-.34 2.287 0a5.207 5.207 0 012.287 2.29c.34.68-.54 1.74 0 2.28.538.54 1.747-.54 2.286 0 .539.54-.539 1.75 0 2.29 1.205 1.2 3.368 1.08 4.573 2.29.54.53-.539 1.74 0 2.28.54.54 1.748-.54 2.287 0 .539.54-.54 1.75 0 2.29.539.54 1.604-.34 2.286 0 .964.48 1.525 1.52 2.287 2.29.762.76 1.804 1.32 2.286 2.28.341.68-.539 1.75 0 2.29.54.54 1.748-.54 2.287 0 .539.54-.682 1.94 0 2.29 1.363.68 3.21-.69 4.573 0 .682.34-.34 1.6 0 2.28.482.97 1.805 1.32 2.286 2.29.341.68-.681 1.94 0 2.28 1.364.69 3.127-.48 4.573 0 .002.01 4.572 4.58 4.574 4.58 3.386 1.69 12.487 0 16.005 0 3.105 0 11.058 1.33 13.72 0 .964-.48 1.322-1.81 2.286-2.29h4.573c.54-.54-.539-1.75 0-2.29.54-.53 1.748.54 2.287 0 .539-.53 0-1.52 0-2.28 0-.76-.54-1.75 0-2.29.539-.54 1.747.54 2.286 0 .54-.54-.539-1.75 0-2.28.54-.54 1.748.53 2.287 0 .539-.54 0-1.53 0-2.29s-.341-1.61 0-2.29c.482-.96 1.804-1.32 2.286-2.28.341-.69-.539-1.75 0-2.29.54-.54 1.748.54 2.287 0 1.205-1.21 1.341-3.16 2.287-4.57.598-.9 1.804-1.33 2.286-2.29 2.786-5.57 4.418-13.56 9.146-18.29.539-.54 1.946.68 2.287 0 .682-1.37-.846-3.31 0-4.58.945-1.41 3.155-1.34 4.573-2.28.897-.6 1.524-1.53 2.286-2.29 1.525-1.52 3.378-2.78 4.574-4.57.422-.64-.241-1.57 0-2.29.538-1.615 1.081-3.367 2.286-4.572.539-.54 1.748.539 2.287 0 .538-.54-.241-1.563 0-2.286.538-1.617 1.341-3.155 2.286-4.573 2.259-3.39 2.065-5.385 4.573-9.147.598-.896 1.946-1.264 2.287-2.286.482-1.446-.482-3.127 0-4.573.341-1.023 1.524-1.525 2.286-2.287s1.946-1.264 2.287-2.286c.482-1.446-.299-3.08 0-4.573.472-2.364 1.208-4.704 2.286-6.86.482-.964 1.525-1.524 2.287-2.287.762-.762 1.946-1.264 2.286-2.286.483-1.446 0-3.05 0-4.573 0-.762-.34-1.605 0-2.287.482-.964 1.689-1.39 2.287-2.286.945-1.418 1.748-2.956 2.286-4.573 1.151-3.451.613-8.085 2.287-11.433.482-.964 2.025-1.241 2.286-2.286.897-3.587-.896-7.846 0-11.433 1.211-4.842 5.65-8.877 6.86-13.72.897-3.586-.896-7.845 0-11.432.413-1.654 1.654-2.991 2.287-4.573.895-2.238 1.813-4.496 2.286-6.86 1.163-5.814-1.436-12.548 0-18.292 3.114-12.457 9.28-25.957 11.433-38.871.376-2.256-.449-4.618 0-6.86.334-1.671 1.524-3.05 2.286-4.573.763-1.524 1.953-2.902 2.287-4.573.448-2.242-.376-4.604 0-6.86.396-2.377 1.047-4.793 2.287-6.86 1.109-1.848 3.608-2.644 4.573-4.572.681-1.364-.483-3.127 0-4.574.34-1.022 1.886-1.285 2.286-2.286 1.167-2.918 1.293-6.165 2.287-9.146 1.594-4.783 4.985-9.035 6.859-13.72 3.094-7.733 4.908-15.06 6.86-22.865 1.199-4.795 5.891-8.88 6.86-13.72.448-2.241-.449-4.617 0-6.86.926-4.631 3.423-9.118 4.573-13.718v-9.146c.413-1.653 1.873-2.92 2.286-4.573.37-1.48 0-3.05 0-4.573 0-1.525-.369-3.094 0-4.573 1.888-7.55 4.962-15.276 6.86-22.866 2.69-10.76-2.69-23.538 0-34.298 1.176-4.707 3.396-9.012 4.573-13.72.37-1.478 0-3.048 0-4.572s-.482-3.127 0-4.573c.341-1.023 1.804-1.322 2.286-2.287 1.229-2.457-.881-6.5 0-9.146 1.388-4.163 3.186-7.27 4.573-11.432.915-2.744-.914-6.403 0-9.147.341-1.022 1.805-1.322 2.287-2.286.675-1.35 0-5.323 0-6.86 0-7.06-2.203-18.545 0-25.152.341-1.022 1.804-1.322 2.287-2.286 2.439-4.878-2.439-13.415 0-18.293.482-.964 1.804-1.322 2.286-2.286.903-1.806-.643-4.931 0-6.86 1.29-3.87 3.586-7.483 4.573-11.432 1.482-5.93-2.676-15.226 0-20.58.482-.963 1.946-1.263 2.287-2.286.482-1.446-.482-3.127 0-4.573.34-1.022 1.945-1.264 2.286-2.286.482-1.446 0-3.05 0-4.573 0-.763-.341-1.605 0-2.287.482-.964 1.946-1.264 2.287-2.287.482-1.446-.482-3.127 0-4.573.341-1.022 1.946-1.264 2.286-2.286.482-1.446-.482-3.127 0-4.573.341-1.023 1.525-1.525 2.287-2.287s1.804-1.322 2.286-2.286c.341-.682 0-1.525 0-2.287s-.241-1.563 0-2.286c.539-1.617 1.342-3.155 2.287-4.574.598-.896 1.946-1.263 2.286-2.286.483-1.446-.482-3.127 0-4.573.341-1.023 1.525-1.524 2.287-2.287.762-.762 1.689-1.39 2.287-2.286 4.948-7.423 9.812-17.34 13.719-25.152 1.078-2.156.949-4.854 2.286-6.86.423-.634 1.748.539 2.287 0 1.205-1.205 1.341-3.155 2.286-4.573.598-.897 1.805-1.322 2.287-2.286.341-.682 0-1.525 0-2.287 0-1.524-.845-3.305 0-4.573.945-1.418 3.368-1.081 4.573-2.287.539-.538-.241-1.563 0-2.286.539-1.617 1.081-3.368 2.286-4.573.54-.54 1.653.423 2.287 0 1.794-1.196 3.049-3.05 4.573-4.573.762-.762 1.946-1.264 2.287-2.287.482-1.446-1.078-3.495 0-4.573 1.078-1.078 3.495 1.078 4.573 0 1.078-1.078-1.078-3.495 0-4.573 1.078-1.078 3.127.482 4.573 0 1.023-.341 1.524-1.524 2.286-2.286 1.807-1.808 2.095-6.034 4.573-6.86 1.447-.482 3.305.846 4.574 0 1.418-.945.868-3.628 2.286-4.573 1.268-.846 3.094.37 4.573 0 1.654-.413 3.155-1.341 4.573-2.287 4.681-3.12 8.564-4.282 13.72-6.86 2.457-1.228 4.308-3.552 6.859-4.572 1.415-.567 3.158.566 4.573 0 2.309-.924 8.103-6.194 11.433-6.86 2.242-.448 4.69.723 6.859 0 2.608-.87 4.504-3.16 6.86-4.573 1.462-.877 2.92-1.873 4.573-2.287 1.479-.37 3.094.37 4.573 0 .048-.012 9.098-4.561 9.146-4.573 1.479-.37 3.049 0 4.574 0 .762 0 1.563.24 2.286 0 4.717-1.572 8.904-5.655 13.719-6.86 5.737-1.434 12.488 1.162 18.293 0 6.081-1.216 11.94-5.8 18.292-6.86 2.255-.375 4.573 0 6.86 0 2.286 0 4.617.45 6.859 0 6.081-1.215 11.941-5.8 18.292-6.858 2.256-.376 4.573 0 6.86 0s4.604.375 6.86 0c12.207-2.035 24.362-6.702 36.584-9.147 11.805-2.361 24.615-5.53 36.585-6.86 3.03-.336 6.121.379 9.146 0 11.091-1.386 21.209-6.985 32.012-9.145 1.494-.3 3.048 0 4.573 0 2.286 0 4.641.554 6.859 0 1.046-.262 1.264-1.946 2.287-2.287 1.446-.482 3.078.299 4.573 0 7.978-1.596 15.141-5.315 22.865-6.86 2.242-.448 4.618.449 6.86 0 1.671-.334 2.92-1.873 4.573-2.286 5.044-1.261 10.882-1.262 16.006-2.287 2.363-.472 4.573-1.524 6.859-2.286 2.287-.762 4.483-1.891 6.86-2.287 7.451-1.242 15.376-1.216 22.865-2.286 7.148-1.021 9.491-2.712 16.006-4.573 9.211-2.632 18.171-3.25 27.439-4.573 3.111-.445 6.124-1.424 9.146-2.287 2.317-.662 4.473-1.946 6.86-2.286 3.018-.432 6.097 0 9.146 0 3.048 0 6.116.336 9.146 0 3.862-.43 7.57-1.858 11.432-2.287 3.031-.337 6.128.43 9.147 0 7.647-1.092 15.231-3.301 22.865-4.573 5.814-.97 12.581 1.428 18.292 0 1.654-.413 2.92-1.873 4.573-2.287 1.479-.37 3.049 0 4.574 0 .762 0 1.747.539 2.286 0 .539-.54-.539-1.747 0-2.286.605-.605 5.918 0 6.86 0h25.152c21.142 0 42.99-1.753 64.023 0 5.371.447 10.679 1.467 16.005 2.286 4.578.705 9.098 1.867 13.718 2.287 24.94 2.267 50.48-1.666 75.46 0 5.38.358 10.63 1.903 16 2.286 5.32.38 10.71-.59 16.01 0 1.69.189 3.05 1.525 4.57 2.287 1.53.762 2.92 1.873 4.58 2.287 5.08 1.27 8.87.67 13.71 2.286 1.03.34 1.33 1.805 2.29 2.287 4.29 2.142 11.17 5.248 16.01 6.859 2.98.994 6.09 1.525 9.14 2.287 3.05.762 6.26 1.048 9.15 2.286 2.52 1.083 4.4 3.344 6.86 4.573 2.15 1.078 4.7 1.209 6.86 2.287.96.482 1.39 1.689 2.28 2.287 1.42.945 2.92 1.873 4.58 2.286 1.48.37 3.12-.482 4.57 0 1.02.34 1.81 1.322 2.29 2.286.34.682-.54 1.748 0 2.287.54.539 1.6-.341 2.28 0 .97.482 1.33 1.805 2.29 2.287h4.57c1.21 1.205.93 3.55 2.29 4.573 1.93 1.446 4.7 1.208 6.86 2.286 9.51 4.754 19.32 11.794 27.44 18.293 2.14 1.716 4.57 3.048 6.86 4.573 2.28 1.524 4.91 2.63 6.86 4.573 1.94 1.943 2.42 5.143 4.57 6.859 1.88 1.506 4.98.78 6.86 2.287 2.15 1.717 2.63 4.916 4.57 6.859 1.95 1.944 4.75 2.814 6.86 4.574 2.49 2.07 4.23 4.98 6.86 6.859 7.9 5.639 17.74 9.517 25.15 16.006 2.87 2.509 4.17 6.45 6.86 9.146 1.95 1.943 4.63 2.976 6.86 4.573 3.1 2.215 5.84 4.969 9.15 6.86 2.09 1.196 4.98.78 6.86 2.286 4.49 3.597 5.78 10.892 11.43 13.719 1.37.682 3.31-.845 4.58 0 1.41.946 1.08 3.368 2.28 4.574 2.71 2.708 8.35 4.546 11.43 6.859 4.81 3.6 8.92 7.832 13.72 11.433 1.37 1.022 3.37 1.08 4.58 2.287 1.94 1.943 2.63 4.916 4.57 6.859 1.2 1.205 3.15 1.34 4.57 2.287 2.53 1.68 4.16 5.509 6.86 6.859 6.03 3.012 14.08 9.69 18.29 16.006.01 0 4.58 9.146 4.58 9.146 1.94 1.943 4.71 2.857 6.86 4.573 1.68 1.347 3.19 2.917 4.57 4.573 4.18 5.02 9.26 11.777 11.43 18.293 1 2.98.88 6.335 2.29 9.146.96 1.928 3.23 2.889 4.57 4.573 1.72 2.146 3.35 4.402 4.58 6.859l9.14 18.293c1.08 2.156 1.44 4.603 2.29 6.859 1.44 3.843 2.9 7.682 4.57 11.433 6.36 14.307 14.15 28.258 18.29 43.444 1.03 3.75 1.06 7.746 2.29 11.433 3.37 10.099 9.39 19.972 13.72 29.725 4.4 9.898 7.68 19.728 11.43 29.725 1.2 3.192 3.05 6.097 4.58 9.146.76 1.525 1.95 2.902 2.28 4.573.45 2.242-.72 4.69 0 6.86.95 2.845 5.91 6.3 6.86 9.146.48 1.446-.37 3.094 0 4.573 1.35 5.397 3.44 10.324 4.57 16.006.83 4.116 0 9.512 0 13.719v29.725c0 5.659-1.11 12.728 0 18.292.48 2.364 1.9 4.483 2.29 6.86 1.11 6.643-1.32 13.979 0 20.579.34 1.67 1.75 2.956 2.29 4.573 2.22 6.672 0 18.056 0 25.152v84.602c0 2.746 1.2 9.028 0 11.432-1.66 3.322-3.52 4.93-4.58 9.147-.36 1.478 0 3.048 0 4.573v84.602c0 2.286-.84 4.736 0 6.859.81 1.999 3.78 2.569 4.58 4.569 1.28 3.22 0 12.27 0 16.01V1074.773c0 1.93-1.19 7.95 0 9.14.54.54 1.75-.54 2.28 0 .54.54-.53 1.75 0 2.29.54.54 1.75-.54 2.29 0s0 1.52 0 2.29c0 .72-.5 1.65 0 2.17.48.5 1.46-.31 2.08 0 .88.44 1.63 1.21 2.08 2.08.3.59 0 1.33 0 1.99 0 .64-.35 1.38 0 1.91.95 1.44 2.44 2.43 3.66 3.65.58.59 1.39 1.02 1.76 1.76.26.53-.41 1.34 0 1.76.8.84 2.47.88 3.32 1.7.38.36 0 1.05 0 1.57 0 .53-.28 1.13 0 1.58.1.15 1.88.08.99 1.37-.39.57-2.57-.35-3.28 0-.68.34-3.32 3.14-3.32 3.74"/>
    <path d="M462.041 574.949c1.83 0 6.562.787 8.17 0 1.148-.563 1.574-2.105 2.723-2.668 2.178-1.067 5.99 1.067 8.17 0 1.147-.562 1.654-1.97 2.722-2.667 1.69-1.103 3.478-2.186 5.447-2.668 1.761-.431 3.685.43 5.446 0 .031-.008 10.861-5.328 10.892-5.335 1.762-.432 3.667.349 5.447 0 2.815-.552 5.602-1.41 8.17-2.668 2.927-1.434 5.13-4.144 8.17-5.335 1.684-.661 3.684.43 5.445 0 5.762-1.411 13.551-5.843 19.062-8.003 1.885-.74 3.631-1.78 5.447-2.668 1.815-.89 3.757-1.564 5.446-2.667 1.068-.698 1.478-2.363 2.723-2.668 2.642-.647 5.5.523 8.17 0 4.612-.903 9.046-4.216 13.616-5.335 1.761-.432 3.685.43 5.446 0 5.511-1.35 6.468-6.558 10.893-8.003 1.722-.562 3.724.562 5.446 0 1.218-.398 1.655-1.97 2.723-2.668 1.69-1.103 3.521-2.04 5.447-2.667.861-.282 1.815 0 2.723 0 1.815 0 3.724.562 5.446 0 1.218-.398 1.655-1.97 2.723-2.668 1.69-1.103 3.521-2.04 5.447-2.668 6.648-2.171 14.851-6.644 21.785-8.002 2.67-.524 5.483.438 8.17 0 2.831-.463 5.602-1.411 8.17-2.668 2.926-1.434 5.241-3.902 8.17-5.335 2.566-1.258 5.353-2.117 8.168-2.668 6.983-1.368 14.803 1.368 21.785 0 7.141-1.4 12.31-6.35 19.063-8.003 5.88-1.44 13.105.973 19.062 0 2.831-.462 5.504-1.623 8.17-2.667 1.884-.74 3.455-2.278 5.446-2.668 2.67-.523 5.586.843 8.17 0 3.104-1.014 5.022-4.455 8.17-5.335 3.49-.978 7.297.503 10.891 0 5.945-.832 13.118-4.504 19.063-5.336 2.695-.377 5.5.524 8.17 0 1.99-.39 3.561-1.93 5.446-2.667 2.665-1.045 5.354-2.116 8.17-2.668 6.18-1.211 12.88-1.457 19.061-2.668 2.815-.551 5.531-1.56 8.17-2.667 3.731-1.567 7.041-4.078 10.892-5.335 1.723-.563 3.686.43 5.447 0 1.97-.483 3.456-2.278 5.446-2.668 2.67-.523 5.5.523 8.17 0 6.37-1.248 12.693-6.755 19.062-8.003 6.86-1.344 14.988 1.665 21.785 0 .031-.008 10.862-5.328 10.893-5.335 4.272-1.046 9.344 1.046 13.616 0 1.97-.482 3.477-2.186 5.446-2.668 2.563-.628 5.607.628 8.17 0 2.785-.682 5.504-1.623 8.17-2.667 1.884-.74 3.455-2.278 5.446-2.668 2.67-.523 5.446 0 8.17 0 1.815 0 3.684.43 5.445 0 5.606-1.373 10.734-3.962 16.34-5.335 4.64-1.137 11.537 0 16.338 0h27.232c10.35 0 22.604-1.974 32.678 0 1.991.39 3.456 2.277 5.447 2.667 2.67.524 5.446 0 8.17 0 2.722 0 5.482-.438 8.17 0 7.74 1.264 7.265 2.847 13.615 5.336 12.463 4.883 25.802 8.165 38.124 13.338 3.731 1.566 6.99 4.242 10.893 5.335 2.618.733 5.586-.844 8.17 0 3.104 1.014 5.445 3.557 8.17 5.335 2.722 1.779 5.241 3.902 8.168 5.335 13.547 6.636 24.578 4.036 38.125 10.67 2.927 1.435 5.242 3.902 8.17 5.336 2.567 1.258 5.446 1.779 8.17 2.668 2.722.889 5.53 1.56 8.168 2.668 3.731 1.566 7.262 3.556 10.893 5.335 1.815.889 3.521 2.039 5.446 2.667 3.551 1.16 7.453 1.224 10.893 2.668 3.008 1.263 5.242 3.9 8.17 5.335 9.685 4.744 20.12 6.542 29.954 10.67 7.5 3.149 17.154 7.069 24.51 10.67 2.926 1.435 5.362 3.687 8.168 5.337a38.46 38.46 0 005.447 2.667c7.218 2.829 14.566 5.174 21.785 8.003l10.893 5.335 21.781 5.336c17.4 6.39 34.35 14.95 51.74 21.34 3.51 1.288 7.39 1.38 10.9 2.668 7.64 2.809 16.33 9.07 24.51 10.67 2.67.524 5.49-.522 8.17 0 6.58 1.29 12.44 6.707 19.06 8.004 2.67.523 5.5-.524 8.17 0 1.99.39 3.45 2.277 5.44 2.667 7.89 1.546 16.62 1.123 24.51 2.668 3.4.665 11.78 7.104 13.62 8.003 8.99 4.402 17.92 1.689 27.23 5.335 1.88.738 3.63 1.778 5.45 2.668 1.81.889 3.52 2.038 5.44 2.667 5.02 1.638 11.35.224 16.34 2.668 1.15.562 1.51 2.27 2.72 2.667 2.41.785 8.04 0 10.9 0H1698.357c.91 0 2.32.796 2.73 0 .81-1.59-.58-3.648 0-5.335.4-1.193 2.15-1.543 2.72-2.667 1.59-3.106 0-12.384 0-16.006 0-4.481 1.69-17.211 0-21.341-.95-2.335-4.12-3.18-5.45-5.335-1.47-2.412-2.25-5.23-2.72-8.003-.45-2.632 1.22-5.617 0-8.003-.91-1.78-4.01-1.262-5.45-2.668-2.75-2.7-3.85-10.733-5.44-13.338-1.32-2.157-4.3-3.086-5.45-5.335-.81-1.591.81-3.745 0-5.335-1.15-2.25-3.9-3.324-5.44-5.336-4.92-6.418-6.86-14.742-10.9-21.341-1.32-2.156-3.9-3.323-5.44-5.335-1.22-1.591-1.82-3.557-2.73-5.335-.9-1.78-1.59-3.681-2.72-5.335-.71-1.047-2.32-1.475-2.72-2.668-.58-1.687.57-3.648 0-5.335-.41-1.193-1.58-2.106-2.73-2.668-.81-.398-2.08.629-2.72 0-4.92-4.824-6.07-13.948-10.89-18.673-.64-.63-2.22.739-2.73 0-1.59-2.34-1.43-5.488-2.72-8.003-.57-1.125-1.65-1.97-2.72-2.668-1.69-1.103-4.23-1.077-5.45-2.668-1.72-2.25-.93-5.807-2.72-8.002-2.05-2.504-5.61-3.333-8.17-5.336-2.01-1.571-3.91-3.323-5.45-5.335-1.21-1.591-1.28-3.93-2.72-5.335-2.55-2.5-8.48-4.455-10.89-8.003-1.13-1.654-1.29-3.93-2.73-5.335-1.43-1.406-4.01-1.262-5.44-2.668-1.44-1.406-1.29-3.93-2.73-5.335-1.43-1.406-4.01-1.262-5.44-2.668-3.34-3.267-3.82-7.831-8.17-10.67-7.21-4.706-13.55-6.134-19.06-13.34-1.22-1.59-1.29-3.928-2.73-5.334-1.43-1.406-3.82-1.474-5.44-2.667-2.06-1.51-3.31-3.941-5.45-5.336-.75-.493-2.08.629-2.72 0-1.44-1.406-1.6-3.681-2.73-5.335-.71-1.046-1.57-2.105-2.72-2.668-.81-.397-2.08.629-2.72 0-.64-.628.64-2.038 0-2.667-1.44-1.406-3.76-1.565-5.45-2.668-1.07-.697-1.57-2.105-2.72-2.668-.81-.397-2.08.629-2.72 0-1.44-1.405-1.6-3.68-2.73-5.335-3.26-4.798-9.79-4.256-13.61-8.003-1.44-1.406-1.29-3.93-2.73-5.335-.64-.63-1.91.398-2.72 0-3.27-1.6-4.9-6.402-8.17-8.003-.81-.397-2.08.629-2.72 0-.64-.63.64-2.04 0-2.667-1.44-1.406-3.76-1.565-5.45-2.668-5.79-3.784-10.55-9.56-16.34-13.338-.75-.493-1.91.397-2.72 0-2.93-1.434-5.55-3.412-8.17-5.335-1.03-.755-1.58-2.106-2.72-2.668-6.57-3.216-15.51-4.311-21.79-8.003-2.2-1.294-3.39-3.826-5.45-5.335-9.37-6.886-22.344-8.279-32.674-13.338-6.412-3.141-14.793-9.301-21.785-10.67-2.67-.524-5.642.99-8.17 0-2.384-.935-3.392-3.827-5.446-5.336-1.624-1.193-3.477-2.185-5.446-2.668-1.762-.431-3.686.432-5.447 0-1.969-.482-3.757-1.564-5.446-2.667-1.068-.698-1.478-2.363-2.723-2.668-2.642-.647-5.528.647-8.17 0-1.245-.305-1.655-1.97-2.723-2.668-1.689-1.103-3.52-2.039-5.446-2.667-.86-.282-1.843.215-2.724 0-2.784-.682-5.602-1.41-8.169-2.668-.002 0-5.444-5.335-5.446-5.335-2.642-.647-5.447 0-8.17 0-.908 0-1.842.215-2.723 0-7.68-1.881-14.02-6.482-21.785-8.003-1.78-.349-3.63 0-5.447 0-2.723 0-5.499.523-8.169 0-5.447-1.067-10.893-4.268-16.339-5.335-2.67-.523-5.5.523-8.17 0-1.99-.39-3.444-2.341-5.446-2.668-3.582-.585-7.262 0-10.893 0-2.723 0-5.483.439-8.169 0-2.832-.462-5.385-1.986-8.17-2.668l-27.232-5.335c-15.43-4.122-30.283-8.71-46.294-10.67-8.788-1.077-18.363 0-27.23 0H865.07c-23.179 0-47.757 2.257-70.802 0-35.728-3.5-70.157-13.339-106.204-13.339H639.047c-1.816 0-3.76-.66-5.446 0-7.48 2.932-14.568 9.803-21.786 13.339-2.567 1.257-5.708 1.22-8.169 2.667-2.202 1.294-3.442 3.764-5.447 5.336-11.239 8.808-24.286 15.297-35.4 24.008-7.856 6.156-16.779 7.027-24.509 13.338-2.959 2.416-4.826 6.132-8.17 8.003-3.249 1.82-7.453 1.224-10.893 2.668-3.008 1.263-5.242 3.901-8.169 5.335-4.372 2.142-8.916 4.02-13.616 5.335-1.745.489-3.685-.431-5.446 0-1.97.483-3.823 1.475-5.447 2.668-2.053 1.509-3.15 4.21-5.446 5.335-1.624.796-3.666-.349-5.446 0-2.815.552-5.505 1.624-8.17 2.668-5.247 2.056-8.57 5.531-13.616 8.003-1.815.889-3.52 2.039-5.446 2.667-.861.282-1.968-.493-2.723 0-2.136 1.396-3.31 3.94-5.446 5.336-3.378 2.206-7.515 3.129-10.893 5.335-3.551 2.319-14.486 13.585-16.34 16.006-.544.71.288 1.824 0 2.667-.641 1.887-1.596 3.68-2.722 5.336-.712 1.046-2.412 1.447-2.724 2.667-.862 3.38 0 12.055 0 16.006v40.014c0 3.83 1.721 15.302 0 18.674-.405.795-2.08-.63-2.723 0-.641.629 0 1.778 0 2.667v45.349c0 4.33 1.388 11.93 0 16.007-.406 1.193-2.149 1.543-2.723 2.668-1.13 2.215 0 8.14 0 10.67v26.676c0 2.089-1.359 12.007 0 13.339.642.628 2.082-.63 2.723 0 .642.628-.406 1.872 0 2.667.574 1.125 2.15 1.543 2.723 2.668 1.09 2.134-1.089 5.869 0 8.003 1.351 2.646 4.507 5.239 5.447 8.003 1.198 3.522 0 9.538 0 13.338 0 .889-.642 2.039 0 2.667.642.629 2.081-.63 2.723 0 .642.629-.642 2.039 0 2.668s2.081-.63 2.723 0c1.362 1.334-1.361 6.669 0 8.003.642.628 2.081-.63 2.723 0 1.362 1.334-1.361 6.669 0 8.003.642.628 2.082-.63 2.724 0 .641.628-.642 2.039 0 2.667.641.629 2.08-.628 2.723 0 .642.629-.642 2.039 0 2.668s2.081-.63 2.723 0c.642.629-.642 2.039 0 2.668.642.628 1.911-.398 2.723 0 1.148.562 1.575 2.105 2.723 2.667.812.398 1.816 0 2.723 0 .908 0 2.082-.628 2.724 0 .641.629-.642 2.039 0 2.668 1.815 1.778 9.077-1.78 10.892 0 .642.629-.642 2.039 0 2.667.642.629 1.816 0 2.723 0h2.724c3.165 0 8.406 1.053 11.424 0 .862-.3 1.187-2.916 2.292-2.916"/>
    <path d="M726.536 1620.907c0-1.56 3.15-2.333 4.15-3.654.291-.385-.512-.88 0-1.218.572-.378 2.037-.288 2.766-.61 5.078-2.235 8.749-4.99 15.215-6.699 1.35-.357 5.517-.602 6.917-1.218.729-.32.525-.966 1.383-1.218.767-.225 1.891.128 2.766 0 1.956-.287 3.743-.768 5.533-1.218 5.994-1.508 11.448-2.695 17.982-3.654 5.77-.847 11.407-3.501 16.598-4.873 1.25-.33 2.796-.37 4.15-.609.957-.168 1.941-.337 2.766-.609 3.157-1.042 5.899-2.331 9.683-3.045 1.747-.33 3.95-.145 5.533-.61 1.383-.405 1.468-1.37 2.766-1.826l8.3-1.219c2.704-.714 4.101-1.816 6.915-2.436.825-.181 2 .225 2.767 0 .857-.252.525-.966 1.383-1.218.767-.225 2.114.287 2.766 0 .652-.287-.51-.88 0-1.218 1.514-1 8.847-3.003 11.066-3.654 2.227-.654 5.895-.866 8.3-1.218 2.241-.33 4.69-1.947 6.915-2.437 3.407-.75 7.62-1.22 11.066-1.827 1.543-.272 2.851-.76 4.15-1.218 1.018-.359 1.6-.961 2.766-1.218 1.7-.374 3.705-.38 5.533-.61a85.607 85.607 0 004.15-.608c3.783-.667 7.203-1.87 11.065-2.436.438-.065.922 0 1.383 0 .922 0 1.872.098 2.767 0 4.966-.547 7.851-2.54 12.45-3.046 5.855-.644 11.301-1.27 16.597-2.436.413-.09.922 0 1.383 0 .461 0 .971.09 1.384 0 .583-.128.922-.406 1.383-.609.461-.203.8-.48 1.383-.609 6.558-1.444 10.99 1.65 15.215 3.045 8.234 2.72 12.08 3.046 22.132 3.046h22.131c1.083 0 6.226-.304 6.916 0 2.232.982 10.807.997 15.215.609 8.107-.714 15.158-1.219 23.515-1.219 1.661 0 5.462-.32 6.916 0 2.43.535 4.601 1.927 6.916 2.437 2.093.46 3.94.516 5.533 1.218 2.597 1.143 2.74 3.037 6.916 4.263 3.53 1.036 8.558 1.903 12.45 3.045.383.113.921 0 1.382 0 1.383 0 2.808-.147 4.15 0 2.062.227 4.491 1.56 6.916 1.828 3.037.334 6.645-.335 9.682 0 2.97.326 6.83.799 9.683 1.218 6.17.905 11.1 3.42 16.598 4.872 4.22 1.115 8.211 2.535 12.45 3.655 1.25.33 3.01.207 4.15.609 1.297.457 1.59 1.31 2.765 1.827 5.361 2.36 14.724 4.05 20.75 6.09 3.368 1.141 6.061 2.674 9.681 3.655 2.484.673 5.691.643 8.3 1.218 6.17 1.358 11.766 3.504 17.981 4.872 2.824.622 5.821.673 8.3 1.218.583.129 1.091.353 1.383.61.206.18-.326.465 0 .608 6.376 2.808 13.788 5.443 17.981 9.136 1.26 1.11 1.537 2.572 2.767 3.654 3.28 2.89 9.634 6.763 6.916 10.354-.289.382-.954.697-1.277 1.07a.939.939 0 00-.106.149c-.224.393.412.854 0 1.218-.135.118-2.467.477-2.767.609-3.02 1.33-5.286 3.545-8.299 4.872-.056.025-5.477 1.194-5.533 1.218-11.27 4.963-23.926 8.181-38.73 10.354-6.85 1.006-14.948.157-22.13.61-4.835.303-9.322.82-13.834 1.217-1.356.12-2.766 0-4.149 0s-2.785-.1-4.15 0c-4.179.307-8.422 1.532-12.449 1.828-1.819.133-3.688 0-5.533 0-.922 0-1.89-.129-2.766 0-2.213.324-4.285 1.595-6.916 1.827-1.33.117-6.969-.117-8.299 0-3.75.33-7.498 1.807-11.066 2.436-2.626.463-7.405.717-9.682 1.218-1.167.257-1.556 1.005-2.767 1.218-1.284.226-2.785-.1-4.149 0-1.439.106-2.9.279-4.15.609-3.757.993-9.357 3.162-13.832 3.655-2.237.246-4.68-.247-6.916 0-4.096.45-8.424 2.454-12.449 3.045-1.312.192-2.767 0-4.15 0-1.383 0-2.777-.076-4.149 0-7.176.395-13.709 1.919-20.749 2.436-5.186.381-11.299 0-16.598 0-7.556 0-16.063.469-23.515 0-11.926-.75-23.99-2.292-35.963-3.045-9.377-.59-18.47-2.72-27.664-3.655-3.177-.322-6.52-.26-9.683-.609-2.409-.265-4.507-.953-6.916-1.218-5.265-.579-11.316-.144-16.599-.609-9.276-.817-18.022-2.439-27.664-3.045-10.832-.682-21.733-.717-31.814-1.827-4.573-.504-9.091-2.628-13.831-3.046-1.357-.119-2.866.227-4.15 0-1.21-.213-1.723-.873-2.766-1.218-.825-.272-1.789-.465-2.767-.609-8.475-1.244-16.674-3.078-22.131-5.481-.326-.144-.922 0-1.383 0-.462 0-.971.09-1.384 0-.998-.22-5.045-1.613-5.533-1.827-1.152-.508-1.613-1.32-2.766-1.827-1.654-.729-6.645-1.709-8.3-2.437-.692-.305-1.859-1.428-2.766-1.827-.812-.358-6.47-1.434-6.916-1.827-.412-.363.652-.931 0-1.218-.652-.287-1.999.225-2.766 0-.858-.252-.811-.84-1.383-1.218-1.382-.913-4.329-1.297-5.533-1.827-.326-.144 0-.406 0-.61 0-.203.206-.427 0-.609-.953-.839-3.244-.819-4.15-1.218-.483-.212.483-1.005 0-1.218-.693-.305-3.243-.819-4.15-1.218-.326-.143 0-.406 0-.609 0-.203.327-.465 0-.609-2.074-.914-4.84-1.523-6.916-2.436-.493-.217 0-1.708 0-2.068 0-.91-3.072-2.994-3.072-3.796" fill="#BB443F" stroke="#000" stroke-width="5"/>
  </g>
</svg>
